<svg xmlns="http://www.w3.org/2000/svg" viewBox="0 0 680 260" width="680" height="260" role="img" aria-label="exotiq">
  <circle cx="120" cy="120" r="96" fill="none" stroke="#000000" stroke-width="20"></circle>
  <rect x="56" y="68" width="116" height="18" fill="#000000"></rect>
  <rect x="56" y="111" width="86" height="18" fill="#000000"></rect>
  <rect x="56" y="154" width="116" height="18" fill="#000000"></rect>
  <circle cx="186" cy="54" r="10" fill="#6EC1E4"></circle>
  <g transform="translate(290, 150)">
    <path d="M37.860 1.800L37.860 1.800Q28.020 1.800 20.580-2.460Q13.140-6.720 8.970-14.280Q4.800-21.840 4.800-31.680L4.800-31.680Q4.800-42.300 8.880-50.130Q12.960-57.960 20.220-62.280Q27.480-66.600 37.020-66.600L37.020-66.600Q47.100-66.600 54.150-61.890Q61.200-57.180 64.620-48.600Q68.040-40.020 67.200-28.380L67.200-28.380L20.280-28.380Q21-21.420 24.420-17.160L24.420-17.160Q28.740-11.760 37.020-11.760L37.020-11.760Q42.360-11.760 46.230-14.130Q50.100-16.500 52.200-21L52.200-21L66.480-16.680Q62.760-7.920 54.990-3.060Q47.220 1.800 37.860 1.800ZM20.640-39.300L52.500-39.300Q51.720-45.600 49.140-49.080L49.140-49.080Q45.480-53.940 37.620-53.940L37.620-53.940Q28.740-53.940 24.420-48.480L24.420-48.480Q21.660-44.940 20.640-39.300L20.640-39.300Z M86.480 0L69.440 0L93.140-32.760L69.920-64.800L86.960-64.800L101.540-44.100L115.880-64.800L132.920-64.800L109.700-32.760L133.520 0L116.480 0L101.540-21.420L86.480 0Z M167.740 1.800L167.740 1.800Q158.020 1.800 150.760-2.580Q143.500-6.960 139.510-14.670Q135.520-22.380 135.520-32.400L135.520-32.400Q135.520-42.600 139.600-50.280Q143.680-57.960 150.940-62.280Q158.200-66.600 167.740-66.600L167.740-66.600Q177.520-66.600 184.780-62.220Q192.040-57.840 196.060-50.130Q200.080-42.420 200.080-32.400L200.080-32.400Q200.080-22.320 196.030-14.610Q191.980-6.900 184.720-2.550Q177.460 1.800 167.740 1.800ZM167.740-11.760L167.740-11.760Q176.380-11.760 180.580-17.520Q184.780-23.280 184.780-32.400L184.780-32.400Q184.780-41.820 180.520-47.430Q176.260-53.040 167.740-53.040L167.740-53.040Q161.920-53.040 158.170-50.430Q154.420-47.820 152.620-43.170Q150.820-38.520 150.820-32.400L150.820-32.400Q150.820-22.980 155.110-17.370Q159.400-11.760 167.740-11.760Z M247.260-12.120L247.260 0Q240.840 1.200 234.690 1.050Q228.540 0.900 223.680-1.230Q218.820-3.360 216.300-7.980L216.300-7.980Q214.080-12.180 213.960-16.560Q213.840-20.940 213.840-26.460L213.840-26.460L213.840-53.460L202.080-53.460L202.080-64.800L213.840-64.800L213.840-82.800L228.240-82.800L228.240-64.800L247.260-64.800L247.260-53.460L228.240-53.460L228.240-27.300Q228.240-23.400 228.330-20.460Q228.420-17.520 229.560-15.660L229.560-15.660Q231.720-12.060 236.460-11.640Q241.200-11.220 247.260-12.120L247.260-12.120Z M272.900-74.640L258.440-74.640L258.440-87.900L272.900-87.900L272.900-74.640ZM272.900 0L258.440 0L258.440-64.800L272.900-64.800L272.900 0Z M312.880 1.800L312.880 1.800Q303.940 1.800 297.280-2.700Q290.620-7.200 286.960-14.940Q283.300-22.680 283.300-32.400L283.300-32.400Q283.300-42.240 286.990-49.950Q290.680-57.660 297.460-62.130Q304.240-66.600 313.420-66.600L313.420-66.600Q322.660-66.600 328.960-62.160L328.960-62.160Q330.220-61.200 331.360-60.180L331.360-60.180L331.360-64.800L344.140-64.800L344.140 28.800L329.560 28.800L329.560-3.240Q329.200-3 328.780-2.700L328.780-2.700Q322.360 1.800 312.880 1.800ZM315.100-11.160L315.100-11.160Q320.920-11.160 324.490-13.830Q328.060-16.500 329.710-21.300Q331.360-26.100 331.360-32.400L331.360-32.400Q331.360-38.760 329.710-43.530Q328.060-48.300 324.580-50.970Q321.100-53.640 315.580-53.640L315.580-53.640Q309.760-53.640 305.980-50.790Q302.200-47.940 300.400-43.110Q298.600-38.280 298.600-32.400L298.600-32.400Q298.600-26.460 300.370-21.630Q302.140-16.800 305.800-13.980Q309.460-11.160 315.100-11.160Z" fill="#000000"></path>
  </g>
  <g transform="translate(294, 200)" opacity="0.7">
    <path d="M7.788 0L5.412 0L5.412-13.882L1.122-13.882L1.122-16.082L12.078-16.082L12.078-13.882L7.788-13.882L7.788 0Z M22.446 0L20.070 0L20.070-16.060L22.446-16.060L22.446-9.416L27.154-9.416L27.154-16.060L29.530-16.060L29.530 0L27.154 0L27.154-7.216L22.446-7.216L22.446 0Z M47.906 0L38.468 0L38.468-16.060L47.906-16.060L47.906-13.948L40.800-13.948L40.800-9.394L47.136-9.394L47.136-7.304L40.800-7.304L40.800-2.112L47.906-2.112L47.906 0Z  M76.166 0L73.746 0L77.838-16.060L80.962-16.060L85.054 0L82.656 0L81.688-4.070L77.134-4.070L76.166 0ZM78.674-10.692L77.574-6.028L81.226-6.028L80.126-10.670Q79.840-11.902 79.653-12.815Q79.466-13.728 79.400-14.058L79.400-14.058Q79.334-13.728 79.158-12.815Q78.982-11.902 78.674-10.692L78.674-10.692Z M102.044 0L93.156 0L93.156-2.112L96.390-2.112L96.390-13.948L93.156-13.948L93.156-16.060L102.044-16.060L102.044-13.948L98.810-13.948L98.810-2.112L102.044-2.112L102.044 0Z  M134.088 0.220L134.088 0.220Q132.592 0.220 131.481-0.341Q130.370-0.902 129.765-1.969Q129.160-3.036 129.160-4.466L129.160-4.466L129.160-11.594Q129.160-13.046 129.765-14.102Q130.370-15.158 131.481-15.719Q132.592-16.280 134.088-16.280L134.088-16.280Q135.584-16.280 136.684-15.708Q137.784-15.136 138.389-14.091Q138.994-13.046 138.994-11.594L138.994-11.594L136.618-11.594Q136.618-12.848 135.958-13.508Q135.298-14.168 134.088-14.168L134.088-14.168Q132.878-14.168 132.207-13.508Q131.536-12.848 131.536-11.616L131.536-11.616L131.536-4.466Q131.536-3.234 132.207-2.563Q132.878-1.892 134.088-1.892L134.088-1.892Q135.298-1.892 135.958-2.563Q136.618-3.234 136.618-4.466L136.618-4.466L138.994-4.466Q138.994-3.036 138.389-1.980Q137.784-0.924 136.684-0.352Q135.584 0.220 134.088 0.220Z M152.200 0.220L152.200 0.220Q150.704 0.220 149.615-0.341Q148.526-0.902 147.943-1.969Q147.360-3.036 147.360-4.466L147.360-4.466L147.360-11.594Q147.360-13.046 147.943-14.102Q148.526-15.158 149.615-15.719Q150.704-16.280 152.200-16.280L152.200-16.280Q153.696-16.280 154.785-15.719Q155.874-15.158 156.457-14.102Q157.040-13.046 157.040-11.616L157.040-11.616L157.040-4.466Q157.040-3.036 156.457-1.969Q155.874-0.902 154.785-0.341Q153.696 0.220 152.200 0.220ZM152.200-1.892L152.200-1.892Q153.410-1.892 154.037-2.563Q154.664-3.234 154.664-4.466L154.664-4.466L154.664-11.594Q154.664-12.848 154.037-13.508Q153.410-14.168 152.200-14.168L152.200-14.168Q151.012-14.168 150.374-13.508Q149.736-12.848 149.736-11.594L149.736-11.594L149.736-4.466Q149.736-3.234 150.374-2.563Q151.012-1.892 152.200-1.892Z M167.496 0L165.252 0L165.252-16.060L168.178-16.060L169.784-10.912Q170.026-10.186 170.202-9.515Q170.378-8.844 170.444-8.514L170.444-8.514Q170.532-8.844 170.697-9.515Q170.862-10.186 171.082-10.912L171.082-10.912L172.622-16.060L175.548-16.060L175.548 0L173.304 0L173.304-5.412Q173.304-6.446 173.359-7.711Q173.414-8.976 173.524-10.263Q173.634-11.550 173.744-12.727Q173.854-13.904 173.942-14.784L173.942-14.784L171.566-6.974L169.278-6.974L166.858-14.784Q166.968-13.926 167.078-12.793Q167.188-11.660 167.276-10.384Q167.364-9.108 167.430-7.821Q167.496-6.534 167.496-5.412L167.496-5.412L167.496 0Z M185.696 0L183.452 0L183.452-16.060L186.378-16.060L187.984-10.912Q188.226-10.186 188.402-9.515Q188.578-8.844 188.644-8.514L188.644-8.514Q188.732-8.844 188.897-9.515Q189.062-10.186 189.282-10.912L189.282-10.912L190.822-16.060L193.748-16.060L193.748 0L191.504 0L191.504-5.412Q191.504-6.446 191.559-7.711Q191.614-8.976 191.724-10.263Q191.834-11.550 191.944-12.727Q192.054-13.904 192.142-14.784L192.142-14.784L189.766-6.974L187.478-6.974L185.058-14.784Q185.168-13.926 185.278-12.793Q185.388-11.660 185.476-10.384Q185.564-9.108 185.630-7.821Q185.696-6.534 185.696-5.412L185.696-5.412L185.696 0Z M203.566 0L201.146 0L205.238-16.060L208.362-16.060L212.454 0L210.056 0L209.088-4.070L204.534-4.070L203.566 0ZM206.074-10.692L204.974-6.028L208.626-6.028L207.526-10.670Q207.240-11.902 207.053-12.815Q206.866-13.728 206.800-14.058L206.800-14.058Q206.734-13.728 206.558-12.815Q206.382-11.902 206.074-10.692L206.074-10.692Z M222.382 0L220.182 0L220.182-16.060L223.174-16.060L227.860-2.706Q227.816-3.344 227.750-4.224Q227.684-5.104 227.651-6.050Q227.618-6.996 227.618-7.766L227.618-7.766L227.618-16.060L229.818-16.060L229.818 0L226.826 0L222.162-13.354Q222.206-12.782 222.261-11.924Q222.316-11.066 222.349-10.142Q222.382-9.218 222.382-8.426L222.382-8.426L222.382 0Z M242.914 0L238.426 0L238.426-16.060L242.914-16.060Q244.498-16.060 245.664-15.455Q246.830-14.850 247.479-13.750Q248.128-12.650 248.128-11.154L248.128-11.154L248.128-4.928Q248.128-3.454 247.479-2.332Q246.830-1.210 245.664-0.605Q244.498 0 242.914 0L242.914 0ZM240.802-13.904L240.802-2.156L242.914-2.156Q244.234-2.156 244.993-2.893Q245.752-3.630 245.752-4.928L245.752-4.928L245.752-11.154Q245.752-12.430 244.993-13.167Q244.234-13.904 242.914-13.904L242.914-13.904L240.802-13.904Z  M279.688 0.220L279.688 0.220Q278.192 0.220 277.081-0.341Q275.970-0.902 275.365-1.969Q274.760-3.036 274.760-4.466L274.760-4.466L274.760-11.594Q274.760-13.046 275.365-14.102Q275.970-15.158 277.081-15.719Q278.192-16.280 279.688-16.280L279.688-16.280Q281.184-16.280 282.284-15.708Q283.384-15.136 283.989-14.091Q284.594-13.046 284.594-11.594L284.594-11.594L282.218-11.594Q282.218-12.848 281.558-13.508Q280.898-14.168 279.688-14.168L279.688-14.168Q278.478-14.168 277.807-13.508Q277.136-12.848 277.136-11.616L277.136-11.616L277.136-4.466Q277.136-3.234 277.807-2.563Q278.478-1.892 279.688-1.892L279.688-1.892Q280.898-1.892 281.558-2.563Q282.218-3.234 282.218-4.466L282.218-4.466L284.594-4.466Q284.594-3.036 283.989-1.980Q283.384-0.924 282.284-0.352Q281.184 0.220 279.688 0.220Z M302.706 0L293.268 0L293.268-16.060L302.706-16.060L302.706-13.948L295.600-13.948L295.600-9.394L301.936-9.394L301.936-7.304L295.600-7.304L295.600-2.112L302.706-2.112L302.706 0Z M313.382 0L311.182 0L311.182-16.060L314.174-16.060L318.860-2.706Q318.816-3.344 318.750-4.224Q318.684-5.104 318.651-6.050Q318.618-6.996 318.618-7.766L318.618-7.766L318.618-16.060L320.818-16.060L320.818 0L317.826 0L313.162-13.354Q313.206-12.782 313.261-11.924Q313.316-11.066 313.349-10.142Q313.382-9.218 313.382-8.426L313.382-8.426L313.382 0Z M335.388 0L333.012 0L333.012-13.882L328.722-13.882L328.722-16.082L339.678-16.082L339.678-13.882L335.388-13.882L335.388 0Z M357.306 0L347.868 0L347.868-16.060L357.306-16.060L357.306-13.948L350.200-13.948L350.200-9.394L356.536-9.394L356.536-7.304L350.200-7.304L350.200-2.112L357.306-2.112L357.306 0Z M368.224 0L365.848 0L365.848-16.060L370.886-16.060Q372.404-16.060 373.526-15.477Q374.648-14.894 375.275-13.838Q375.902-12.782 375.902-11.352L375.902-11.352Q375.902-9.746 375.077-8.569Q374.252-7.392 372.844-6.908L372.844-6.908L376.122 0L373.416 0L370.490-6.600L368.224-6.600L368.224 0ZM368.224-13.948L368.224-8.690L370.886-8.690Q372.074-8.690 372.778-9.405Q373.482-10.120 373.482-11.308L373.482-11.308Q373.482-12.540 372.778-13.244Q372.074-13.948 370.886-13.948L370.886-13.948L368.224-13.948Z" fill="#000000"></path>
  </g>
</svg>