<svg xmlns="http://www.w3.org/2000/svg" viewBox="0 0 708 240" width="708" height="240" role="img" aria-label="exotiq">
  <circle cx="120" cy="120" r="96" fill="none" stroke="#FFFFFF" stroke-width="20"></circle>
  <rect x="56" y="68" width="116" height="18" fill="#FFFFFF"></rect>
  <rect x="56" y="111" width="86" height="18" fill="#FFFFFF"></rect>
  <rect x="56" y="154" width="116" height="18" fill="#FFFFFF"></rect>
  <circle cx="186" cy="54" r="10" fill="#6EC1E4"></circle>
  <g transform="translate(290, 170)">
    <path d="M44.170 2.100L44.170 2.100Q32.690 2.100 24.010-2.870Q15.330-7.840 10.465-16.660Q5.600-25.480 5.600-36.960L5.600-36.960Q5.600-49.350 10.360-58.485Q15.120-67.620 23.590-72.660Q32.060-77.700 43.190-77.700L43.190-77.700Q54.950-77.700 63.175-72.205Q71.400-66.710 75.390-56.700Q79.380-46.690 78.400-33.110L78.400-33.110L23.660-33.110Q24.500-24.990 28.490-20.020L28.490-20.020Q33.530-13.720 43.190-13.720L43.190-13.720Q49.420-13.720 53.935-16.485Q58.450-19.250 60.900-24.500L60.900-24.500L77.560-19.460Q73.220-9.240 64.155-3.570Q55.090 2.100 44.170 2.100ZM24.080-45.850L61.250-45.850Q60.340-53.200 57.330-57.260L57.330-57.260Q53.060-62.930 43.890-62.930L43.890-62.930Q33.530-62.930 28.490-56.560L28.490-56.560Q25.270-52.430 24.080-45.850L24.080-45.850Z M100.560 0L80.680 0L108.330-38.220L81.240-75.600L101.120-75.600L118.130-51.450L134.860-75.600L154.740-75.600L127.650-38.220L155.440 0L135.560 0L118.130-24.990L100.560 0Z M195.030 2.100L195.030 2.100Q183.690 2.100 175.220-3.010Q166.750-8.120 162.095-17.115Q157.440-26.110 157.440-37.800L157.440-37.800Q157.440-49.700 162.200-58.660Q166.960-67.620 175.430-72.660Q183.900-77.700 195.030-77.700L195.030-77.700Q206.440-77.700 214.910-72.590Q223.380-67.480 228.070-58.485Q232.760-49.490 232.760-37.800L232.760-37.800Q232.760-26.040 228.035-17.045Q223.310-8.050 214.840-2.975Q206.370 2.100 195.030 2.100ZM195.030-13.720L195.030-13.720Q205.110-13.720 210.010-20.440Q214.910-27.160 214.910-37.800L214.910-37.800Q214.910-48.790 209.940-55.335Q204.970-61.880 195.030-61.880L195.030-61.880Q188.240-61.880 183.865-58.835Q179.490-55.790 177.390-50.365Q175.290-44.940 175.290-37.800L175.290-37.800Q175.290-26.810 180.295-20.265Q185.300-13.720 195.030-13.720Z M287.470-14.140L287.470 0Q279.980 1.400 272.805 1.225Q265.630 1.050 259.960-1.435Q254.290-3.920 251.350-9.310L251.350-9.310Q248.760-14.210 248.620-19.320Q248.480-24.430 248.480-30.870L248.480-30.870L248.480-62.370L234.760-62.370L234.760-75.600L248.480-75.600L248.480-96.600L265.280-96.600L265.280-75.600L287.470-75.600L287.470-62.370L265.280-62.370L265.280-31.850Q265.280-27.300 265.385-23.870Q265.490-20.440 266.820-18.270L266.820-18.270Q269.340-14.070 274.870-13.580Q280.400-13.090 287.470-14.140L287.470-14.140Z M317.050-87.080L300.180-87.080L300.180-102.550L317.050-102.550L317.050-87.080ZM317.050 0L300.180 0L300.180-75.600L317.050-75.600L317.050 0Z M363.360 2.100L363.360 2.100Q352.930 2.100 345.160-3.150Q337.390-8.400 333.120-17.430Q328.850-26.460 328.850-37.800L328.850-37.800Q328.850-49.280 333.155-58.275Q337.460-67.270 345.370-72.485Q353.280-77.700 363.990-77.700L363.990-77.700Q374.770-77.700 382.120-72.520L382.120-72.520Q383.590-71.400 384.920-70.210L384.920-70.210L384.920-75.600L399.830-75.600L399.830 33.600L382.820 33.600L382.820-3.780Q382.400-3.500 381.910-3.150L381.910-3.150Q374.420 2.100 363.360 2.100ZM365.950-13.020L365.950-13.020Q372.740-13.020 376.905-16.135Q381.070-19.250 382.995-24.850Q384.920-30.450 384.920-37.800L384.920-37.800Q384.920-45.220 382.995-50.785Q381.070-56.350 377.010-59.465Q372.950-62.580 366.510-62.580L366.510-62.580Q359.720-62.580 355.310-59.255Q350.900-55.930 348.800-50.295Q346.700-44.660 346.700-37.800L346.700-37.800Q346.700-30.870 348.765-25.235Q350.830-19.600 355.100-16.310Q359.370-13.020 365.950-13.020Z" fill="#FFFFFF"></path>
  </g>
</svg>