<svg xmlns="http://www.w3.org/2000/svg" viewBox="0 0 402 460" width="402" height="460" role="img" aria-label="exotiq">
  <g transform="translate(80.75, 0)">
    <circle cx="120" cy="120" r="96" fill="none" stroke="#000000" stroke-width="20"></circle>
  <rect x="56" y="68" width="116" height="18" fill="#000000"></rect>
  <rect x="56" y="111" width="86" height="18" fill="#000000"></rect>
  <rect x="56" y="154" width="116" height="18" fill="#000000"></rect>
  <circle cx="186" cy="54" r="10" fill="#6EC1E4"></circle>
  </g>
  <g transform="translate(40, 400)">
    <path d="M34.705 1.650L34.705 1.650Q25.685 1.650 18.865-2.255Q12.045-6.160 8.223-13.090Q4.400-20.020 4.400-29.040L4.400-29.040Q4.400-38.775 8.140-45.953Q11.880-53.130 18.535-57.090Q25.190-61.050 33.935-61.050L33.935-61.050Q43.175-61.050 49.638-56.733Q56.100-52.415 59.235-44.550Q62.370-36.685 61.600-26.015L61.600-26.015L18.590-26.015Q19.250-19.635 22.385-15.730L22.385-15.730Q26.345-10.780 33.935-10.780L33.935-10.780Q38.830-10.780 42.377-12.953Q45.925-15.125 47.850-19.250L47.850-19.250L60.940-15.290Q57.530-7.260 50.407-2.805Q43.285 1.650 34.705 1.650ZM18.920-36.025L48.125-36.025Q47.410-41.800 45.045-44.990L45.045-44.990Q41.690-49.445 34.485-49.445L34.485-49.445Q26.345-49.445 22.385-44.440L22.385-44.440Q19.855-41.195 18.920-36.025L18.920-36.025Z M78.940 0L63.320 0L85.045-30.030L63.760-59.400L79.380-59.400L92.745-40.425L105.890-59.400L121.510-59.400L100.225-30.030L122.060 0L106.440 0L92.745-19.635L78.940 0Z M153.095 1.650L153.095 1.650Q144.185 1.650 137.530-2.365Q130.875-6.380 127.218-13.447Q123.560-20.515 123.560-29.700L123.560-29.700Q123.560-39.050 127.300-46.090Q131.040-53.130 137.695-57.090Q144.350-61.050 153.095-61.050L153.095-61.050Q162.060-61.050 168.715-57.035Q175.370-53.020 179.055-45.953Q182.740-38.885 182.740-29.700L182.740-29.700Q182.740-20.460 179.028-13.393Q175.315-6.325 168.660-2.337Q162.005 1.650 153.095 1.650ZM153.095-10.780L153.095-10.780Q161.015-10.780 164.865-16.060Q168.715-21.340 168.715-29.700L168.715-29.700Q168.715-38.335 164.810-43.477Q160.905-48.620 153.095-48.620L153.095-48.620Q147.760-48.620 144.322-46.227Q140.885-43.835 139.235-39.572Q137.585-35.310 137.585-29.700L137.585-29.700Q137.585-21.065 141.517-15.922Q145.450-10.780 153.095-10.780Z M225.655-11.110L225.655 0Q219.770 1.100 214.132 0.963Q208.495 0.825 204.040-1.127Q199.585-3.080 197.275-7.315L197.275-7.315Q195.240-11.165 195.130-15.180Q195.020-19.195 195.020-24.255L195.020-24.255L195.020-49.005L184.240-49.005L184.240-59.400L195.020-59.400L195.020-75.900L208.220-75.900L208.220-59.400L225.655-59.400L225.655-49.005L208.220-49.005L208.220-25.025Q208.220-21.450 208.302-18.755Q208.385-16.060 209.430-14.355L209.430-14.355Q211.410-11.055 215.755-10.670Q220.100-10.285 225.655-11.110L225.655-11.110Z M248.825-68.420L235.570-68.420L235.570-80.575L248.825-80.575L248.825-68.420ZM248.825 0L235.570 0L235.570-59.400L248.825-59.400L248.825 0Z M285.140 1.650L285.140 1.650Q276.945 1.650 270.840-2.475Q264.735-6.600 261.380-13.695Q258.025-20.790 258.025-29.700L258.025-29.700Q258.025-38.720 261.407-45.788Q264.790-52.855 271.005-56.953Q277.220-61.050 285.635-61.050L285.635-61.050Q294.105-61.050 299.880-56.980L299.880-56.980Q301.035-56.100 302.080-55.165L302.080-55.165L302.080-59.400L313.795-59.400L313.795 26.400L300.430 26.400L300.430-2.970Q300.100-2.750 299.715-2.475L299.715-2.475Q293.830 1.650 285.140 1.650ZM287.175-10.230L287.175-10.230Q292.510-10.230 295.782-12.678Q299.055-15.125 300.567-19.525Q302.080-23.925 302.080-29.700L302.080-29.700Q302.080-35.530 300.567-39.903Q299.055-44.275 295.865-46.723Q292.675-49.170 287.615-49.170L287.615-49.170Q282.280-49.170 278.815-46.557Q275.350-43.945 273.700-39.517Q272.050-35.090 272.050-29.700L272.050-29.700Q272.050-24.255 273.672-19.828Q275.295-15.400 278.650-12.815Q282.005-10.230 287.175-10.230Z" fill="#000000"></path>
  </g>
</svg>